# xmcd
#
# Track frame offsets:
#	150
#	21191
#	39638
#	53842
#	69315
#	104850
#	127625
#	145676
#	161776
#	177905
#	194062
#	238578
#	254950
#	276873
#
# Disc length: 4048 seconds
# Revision: 0
# Processed by: cddbd v1.5.2PL0 Copyright (c) Steve Scherf et al.
# Submitted via: dBpowerAMP V12.0
#
DISCID=d40fce0e
DTITLE=Lorrie Morgan - Live (2010)
DYEAR=2011
DGENRE=Country
TTITLE0=Watch Me
TTITLE1=What Part Of No
TTITLE2=Except For Monday
TTITLE3=Out Of Your Shoes
TTITLE4=Half Enough
TTITLE5=Mirror Mirror
TTITLE6=California Quake
TTITLE7=Good As I Was To You
TTITLE8=I Didn't Know My Own Strength
TTITLE9=Bass Solo
TTITLE10=Ain't No Sunshine
TTITLE11=Leaving' On Your Mind
TTITLE12=Cleanin' Out My Closet
TTITLE13=Something In Red
EXTD=
EXTT0=
EXTT1=
EXTT2=
EXTT3=
EXTT4=
EXTT5=
EXTT6=
EXTT7=
EXTT8=
EXTT9=
EXTT10=
EXTT11=
EXTT12=
EXTT13=
PLAYORDER=
